<svg xmlns="http://www.w3.org/2000/svg" xmlns:xlink="http://www.w3.org/1999/xlink" version="1.2" baseProfile="tiny-ps" viewBox="0 0 512 512"><title>MiCelClaw</title><path fill="#01AEFE" d="M119 257v5l3 1 1 2 2-3h2l9 11h1v-6l-2 1h-2l-2-2 1-4 1 1 1-3q14 1 22 12 12 12 11 29l-2 8 1 1v5h-3v2l-4 1v4q-2 8-8 13l-7 8-20 24-2 2-2 3q-2 4-7 4h-2l1-3-3-1v-2h-4v-5h-2l-1-3 2-2 1-7 2-3h2v-3l-3 2q-1-7 5-12v-2l-2 2-2 1-3-1v-3l1-8h-2l1-3 2-15 1-6-2-1 2-3-1-4-1-3 4-5 3-6 1-2v-6h-3q-3-3-3-7v-2h2v-2l3-4z"/><path fill="#03BCFE" d="m402 257 3 1-1 2 3 1v2l4 1v5l4 2-4 7-1 2h-3l2 2 4-1 1 5 1 3v3l-1 1-1 6v6l-2-2 3 5v7l1 19-4 1 3 2v2h2v3l-2 1-2 3h-2l-1 2h-3l1 2 4 1-2 9-2-1q-4 0-6 3l-3-1v-3h-2l-1-5v-6l2-2v3h2v-2h3l-1-6h-6v-2h-2v4l-1 9h-2l-2-2-4-1 2-7-2-1-3-3v-4h-3v-2h-2q-3-1-5-5v-2h-5v-3l-1-6-3-1q-3-7-4-15l2-3h2v-2h-5q1-15 12-25 7-7 17-7v2l3-2h3q0 6-7 11l-1 1z"/><path fill="#03C0FD" d="m222 336-1 8-3 4q-4 4-4 10-1 6-6 11h-2l-1 3-5 10h-2v6l-4 3-2 4-4 4h-2l-4 2-3-4 1-1-2-1 2 19-4 2-2-2-2 1v-3h-2v3q-2 10-11 16-4 1-5 6l-4 2v-2h-2v-2l-3 2-10 1v-2h2v-2h2v-2h-6q-7 3-8 9l-3-1 36-47 17-19 20-23h2l1-3c6-4 6-4 11-4v-2l2-1 2-1 2-1z"/><path fill="#03C9FE" d="m183 141 3 1-1 6 2 1-1 6v4l-2 6-2 10-1 3v4l-2 14h-2v3l-2 9v4q-1 11-9 19l-2 4-7 7-3 3-4 2-1-4v2l-3 2-1 5h-3v-3l-2 1-7-2v-2h-7v-4l-4 1 5-9 9-15 7-11 36-63z"/><path fill="#09DEFE" d="M270 102h1l4 33 1 4-1 13v4l-1 3-2 1h3l3 24 3-1 5 19q2 13 0 26h-2l-1 2-1-8h-2l2 8v8l-2-1 1 2v10l-3-1-1 4q-5 1-8-2l-3-2v-2h-2v-2l-1-3v-3l-2-4v-17l-1-10v-32l-1 14h-1l-1-18v-37h1l1 8v-4l1-8 1-3-2-3 1-4 3-1v-9l2-1 2 1v-2l2-1z"/><path fill="#03BCFE" d="m339 152 5 1 1 6h2v-2q4 0 5 3l8 12 24 43 12 19 1 2 1 2 2 6h-2l-2 3-2-5-2 1v-2h-2v-2h-2l-1 4h-2l-8 3-2 7-6-7-11-11-3-9-1-1-2-6-1-3-3-13-2-11q-3-9-2-18h-2l-1-9v-5h-2z"/><path fill="#04DCFE" d="M256 102h1l1 110v2l-3 9-2-4-2 1v-2h-2l1 4h2l1 5-7 1-1 4h2v7h2l-1 5-7 2-2 9-8 1 3-3h-3a106 106 0 0 1 4-33v-2l2-14 1-6 3-19 2-27 2-7 1-6v-7l4-22h2v4l3-3v-3z"/><path fill="#05B9FE" d="M358 390q11 4 17 14l24 33q4 4 4 9t3 9l-1 7-9-5-18-14-2-1-2-2-3-4 1-2-2-1v-3h-5v-2l-3-1q-4-1-6-5l-5-1-1-2-3-1 1-8-3-1q5-8 12-10v-2h-2l1-4h2z"/><path fill="#19D4FE" d="M419 284h2v74h-2v-4l-3 1-1 7h-2v6h-2v2l-4 1-1-3-2 3-13-17-4-2-1-3 3-1 1 3h2l1-13h2v2l3-1h3l1 4v3h-3v2l-3-1v11h2v3h2l5-1 2-1 1-2 1 1 1-7h-2l-2-1-1-3 4 1 1-3h2l2-3h2v-3h-2l-1-2-3-2 2-1 2-2v-2h2v-3l-1-20 2 1 1 6z"/><path fill="#04CBFD" d="M305 336c7 2 7 2 9 5v2l2 1q6 2 10 7l2 1 12 12v2h-3v4l-2 1-1 4h-2v-2l-1-4-1 5h-9q-3-3-4-7l-5-3-2-6h5l-1-8-4-1h2v-2h-2l-1-2-1-3-3-1-1-4z"/><path fill="#0883E0" d="m228 392 7 3v3h-3v3l-6 1v-3l-4-1v3h2l-1 5-5 3-3 2-2 1 1 2-3 1-9 4h-2l-1 3h-2l-7 3q-5 3-12 3l2-3h2v-2l6-4 2-4 4-3 2-1 2-2 3-1 14-10 3-1 4-4z"/><path fill="#22E0FE" d="M345 373q9 4 14 12l-3 1v3l-3 6-3 1-1 5-12 1v-4h-3v-3h-2v-2l-3-1-1-15q6 6 5 7v6h2v-2l1-2v-3l1-2 3-1 2-4 1 2h2v2h2l-3-6z"/><path fill="#28E0FE" d="M263 50c5 5 5 15 6 22l3 36h-5v2h-3v7l-3 3-2 1 1-8v-12l1-20v-3l1-8v-7l1-3z"/><path fill="#1194E9" d="M304 401h3l2 5 2-1 5 1v2h2v4l9 2v-3l3 2 2 1 15 11 2 1 4 2q4 3 6 7l1 3-1 1 3 1 4 3 1 2-2-1-5-1q-4-2-7-6-5-4-11-6v-2h-3q-3-1-5-4l-5-3-8-4q-5-4-12-5v-2h-2v-2l-9-3v-2h6z"/><path fill="#B2FAFC" d="m318 402 13 7 2 2 16 11 12 8 3 2c47 33 47 33 64 51l-12-7-5-4-2-1-12-10-24-17-30-21-10-7-13-8v-4h-2z"/><path fill="#AAFCFD" d="m337 352 13 12v2h2l5 6-1 2-5-5-3 1c10 14 10 14 23 25v2l3 1v2h2l-6-8-1-2-11-13 1-2q21 23 37 48l-1 3-6-8 2 2 1 3-1 3-29-36-22-25 1-2q0-6-4-11"/><path fill="#89FBFD" d="m328 115 3 1 12 17 1 2 16 27 1 2 9 13 2 3 1 4-1 2 1 4h-2q-5-5-5-11v-2l-3-1v-2l-3 1-24-45-1-2-4-6-2 3z"/><path fill="#029CF8" d="m137 431 2 1v2h-2v2h-2v2l8-1 1 3h-6l-1 6h2q-1 5-6 7l-3 2-3 2-2 2-7 5-2-2v-3l4-2h-4q2-6 4-6 3-4 2-10h3v-2q3-5 8-8z"/><path fill="#44F7FE" d="m141 203 1 2-3 5-2 5q-3 9-10 16c-6 7-6 7-8 14q1 10 8 15l-1 2-11-12-1 4-4 3 2-7-2-1-1 2-3 4h-3l5-9 1-2 11-14 2-2 1-2h2v-2l5-9 1-2z"/><path fill="#10D1FE" d="m178 395 3 1v3l2 1 2-2q4-2 9 0h3l3 1-1 2h-3v2l-1 2-3 1q-5 2-5 5l-1 2-8 7-13 9-8 6-1-3 2-1q9-7 12-19h2l1 2 2-1 2 2 2-1v-3z"/><path fill="#47F9FE" d="M242 157v6l1 4-1 7v3l-2 18-2 7-1 5v3l-1 3v3l-1 8-1-2h-3l-1-6v-3l1-12 5-34 1-2 1-6z"/><path fill="#43F6FD" d="M261 234c4 5 3 6 3 12h2l2 3 7 6 2 3 4 4h2v-5h2l-1 5h2l1 2 2 5-1 4 5-2q1 6-2 11l-4 3-8 9-1-2 1-4q4-9 2-19-3-6-9-11l-3-3-4-4-2-4-2-1z"/><path fill="#17CFFE" d="m350 395 3 2q-2 6-7 11l2 2v8l2 1 1-3v5h2q5 0 8 5l4 2v2h5l2 6q-5 1-8-2l-2-2-2-1-2-2-4-3-10-7-2-1v-2h2l-2-4-1 2-1-3-2-2h-4v-3l-5-1v2h-3v-4h3l9-2h11v-2z"/><path fill="#1BDCFE" d="M126 242v4l2-1h3l1 1q4 4 10 3v3h3v-5l4-2v-2l2 1-1 3 2 1-4 6 3 1-7 1v2h-2l2 4-14-5v-2l-6-1-2 2c-3-6-3-6-3-10l3-3z"/><path fill="#3CEBFD" d="m281 353 10 11 2 3 6 9-4-1 1 2 1 11 1 5-4 2h-3l-6 1q-3-10-3-22h2v7h2l1-2 3 2 1-6h2l-1-6h-2v-3h-3l-1-2-1-2-1-2-3-4z"/><path fill="#70FCFD" d="M171 150h3v8l-2 3-2 3-12 20h-2l-2 4h-2l-1 3h-3l-1 2-4 3q2-7 7-14l3-4 1-2 11-18 2-3 2-2z"/><path fill="#B8FAFC" d="m169 317-6 9-2 3-2 2h-2l-1 2-5 6-10 12-2 2-9 11-2 2-12 14-1 2-2 1-6 8h-2q2-7 7-11l3-4 2-1 17-20 9-11 13-16 2-2 2-3 1-1c5-5 5-5 8-5"/><path fill="#25E1FE" d="M406 252c8 2 8 2 10 5l3 6 1 1v7l1 3v10h-2l1 4-1 24h-1l-1-30-2 1-1-10v-2l-3-2v-5h-2l-5-4-1-4 2-1z"/><path fill="#14C7FD" d="M101 363h2v2h2v5h4l3 3v2l3 1-5 8-1 2-4 4-1 2-2 1-2 5h-2z"/><path fill="#9DFDFD" d="m421 265 3 2v7l-1 88h-1l-1-53z"/><path fill="#15DCFD" d="m309 361 7 5h2l2 7h8l2 1v-6l4 1-1 1q0 6 2 10l2 1c0 6 0 6-2 9h-2v-2l-1-3v-3l-1-2-2-1 1 11q-6-1-7-3l-1-2-2-3-1-3-2-2z"/><path fill="#2EBFEB" d="M96 288h1v113l1 5h-4V291h2z"/><path fill="#0883E0" d="m174 427 2 1-1 4 3 1-12 7-6 4-3 2-3 2v2l-3 1-10 6-2-1 3-3 2-2 3-1v-2l-2-1 13-10 2-1 6-5 1-1q4-4 7-3"/><path fill="#40F1FD" d="M187 162v2l2 5-3 18-4 18-2-2-4 13v2l-2 1-2 3v-2l2-10 3-14h2v-3c1-13 1-13 4-19h2v-10h2z"/><path fill="#5AF7FD" d="M180 202h1q-1 17-11 30l-2 2-1 2h-2l-1 2-4 5q-4 5-3 12h-1v-8h-2l-1 10v5h-2v-3h-3v3l-3 1-3-3v-2h2v-2l2-1 3-3q3-8 11-13l7-10 5-7 2-4h2v-2q0-8 4-14"/><path fill="#3DEBFE" d="m231 367 2 1-2 6h5l-1 12h2v-3l1-6h2l1-4-2 17h-3l-1 4-3-2v-2l-3 1-4-1 1-13-2-1 3-4 2-2z"/><path fill="#17EDFE" d="M249 242v8l4-1 1-3 2 1-2 4h-3l-1 2-3 3h-2v2h-2v3h-3v2l-4-1 1 6q-5-1-7-7v-7l2 1 6-1 1-4 2-5 7-2z"/><path fill="#83FAFD" d="M101 270h1v77l-1 3-3 2v-67z"/><path fill="#2AEFFE" d="M230 248h1v5h3l-1 2-3-1v7l3 1v2l4 4-1-6 4 1v-2h3v-3h2v-2h2l-1 3h-2v2l-3 15h-2l-1 7-7-9-5-5 2-3 1-7z"/><path fill="#CAFCFC" d="M424 259h1l1 144-8-8-1-2-2-2-2-2-10-14 1-2q7 6 13 15l1 2 2 3 1 2h2z"/><path fill="#12D0FE" d="m413 273 2 1v3l1 5 2-2 1 26v2l-1 11h-1l-1-11v22h-2l-1-19-1-5-2-1 1-3 1 1v-5l1-3 1-4-1-5-1-2v-2l-4 1-1-3h3l-1-3 3-1z"/><path fill="#037CE0" d="m300 394 10 6 6 4 3 2c7 4 7 4 9 9l-10-1v-6h-2v-2h-7l-2-5h-3v3l-8-1v-2l-6-1v-2l-3 1-1-2 4-2 2-1z"/><path fill="#11DAFD" d="m232 330-1 4h-2l-1 2-14 26-1-8v-3l3-3 2-1q4-5 4-11l-6 4q-3 3-7 2v2l-3 1-10 6v-2l-2-1q4-5 11-7l12-5 2-1 8-4z"/><path fill="#89F9FC" d="m344 294 1 7q1 3 4 5l2 1v2h2l-1-7h2v2q3 12 13 21l6 7 2 3 3 5-3-1v-2l-2-1-2-1-2-1q-4-2-6-6l-13-14c-6-7-6-7-6-10l-3-1q0-5 3-9"/><path fill="#1FB5E9" d="M340 302q5 2 8 6l9 11 19 22 12 15 11 13 6 8q-3 1-5-2l-1-1-3-4h-2l-3-8h-2l-6-8-4-4h-2v-2l-5-7c-13-13-13-13-15-18l-3-1v-2l-3 1v-2l-4-7-2-2-4-4z"/><path fill="#73F7FC" d="m132 420 1 2 2 1-5 7-1 1-7 10-9 15q-3 6-6 6l-2 4-1 2-2 2-1 2-3 6v-7l2-2 1-4 2-3 2-3 7-12c6-11 6-11 10-12l4-5 1-2z"/><path fill="#1AD5FC" d="m278 349 5 8 2 3 2 6h3v3h2l1 6h-2l-1 6h-6v-7h-2l-1 3-1-9-1-2z"/><path fill="#24E2FD" d="M190 126h3v8h-2v4q0 13-4 26h-2v10h-2l-2 4 1-7v-4l2-5 1-6 1-4-1-6 1-4h-4l4-9h2z"/><path fill="#57F1FD" d="M330 121q10 8 10 21h-2l-2-4 1 28h-2c-7-31-7-31-5-45"/><path fill="#AEFDFD" d="M278 126h2l7 42 1 19q-3-5-3-11l-1-3v-3l-2 6q-4-8-3-17v-4l1-4v-8l-1-3-1-8z"/><path fill="#12EAFE" d="M287 223q5 9 3 19 0 3 2 5l-1 4-1-2-2 3h-2l-1 3h-2l-1 2 1-5h-2v2l-3 1v-7h2l-1-11 2-1 1 5 1-2v-2l1-2 3-3z"/><path fill="#47F9FE" d="M226 238h4l1 5v3l-1 5-1 8v8h-2l1 4 2 1q6 6 8 14l-10-11-2-3q-4-7-3-15z"/><path fill="#73FAFD" d="M254 62h1c-1 24-1 24-3 35l-1 10c-2 19-2 19-7 24a289 289 0 0 1 7-55l1-3v-3l1-3z"/><path fill="#BFFCFC" d="M208 402v2l-4 3-3 2-3 1-5 4-3 2-28 19v-2l-2-1 15-11 2-1 20-14 1-1q5-4 10-3"/><path fill="#76FCFD" d="M189 349q1 3-2 5l-4 4q-3 3-3 7l3-1q-2 7-8 11l-11 12-5-1 3-4 1-2 4-5 3-4 8-11 2-2z"/><path fill="#23DBFE" d="m110 249 3 1-4 13h-2l1 18h2l-1 3-3-1-1 3h-1l-1 17h-1v-34q-1-11 8-20"/><path fill="#79FAFE" d="M367 244h2q6 7 4 17-1 8-8 14l-7 11h-2l2-6 3-9 3-5q5-11 3-22"/><path fill="#A0FDFE" d="m283 169 2 1 1 10 1 3 2 1v2l2 20v9h-2l-2 2-1-5v-4l-1-7-3-16q-2-8 1-16"/><path fill="#23A1CB" d="m262 10 4 10 4 38h-1l-5-27v-2l-1-9h-2l-1 3-2 19-5 27h-1q-1-9 2-18V41h1v-2l2-11 1-4 1-4v-3z"/><path fill="#63F9FD" d="M294 374q7 2 10 8v3l2 1q3 1 5 4l-4 1 2 4-6 2q-5-2-7-6l-1-7z"/><path fill="#14C7FD" d="M103 269h1l1 16 1-2 5-1-5 10 2 3-1 5v12q0 8-5 14z"/><path fill="#1FDAFD" d="M256 75h1l-2 34 1 2-2 3h-2v-4h-2q-1-10 2-21v-3z"/><path fill="#75F8FC" d="M289 326q7 2 13 6l14 6 3 1 4 3q9 3 15 9l1 4 2 2 2 8q-5-1-8-5l-2-7-1-2v-2h-2l-4-2v-2l-8-3-3-1-2-1-19-9-1 2z"/><path fill="#99FDFE" d="M156 183v5l-1 3-2 2-2 3-2 3-5 9-1 2-25 36q1-7 6-12 7-9 13-21 5-10 12-19l3-6h2z"/><path fill="#14C7FD" d="M102 326h3l1 4v3l-1 4 2-1 6-1-6 9v4l3-2-1 4h-2v2l-1 3v3l-5 5z"/><path fill="#38DAF6" d="M425 286h1l1 34 2 1v13l1 2v8l-1 6 1 3-1 10h-2v-2l-1-13h-1zm2 38 1 2z"/><path fill="#62FCFE" d="m406 240 2 1 4 3q4 2 4 5l2 2q5 6 6 14l-2 5-1 5v4h-1v-9q0-6-4-10l-1-3-1-2-3-1v-4l-5-2 1-3z"/><path fill="#2CF5FE" d="M290 237h1q3 13 3 28l-4 1v2l-4-2v-4h-2l1-5h-2v-2h2v-5l1 2 5-5-2-2z"/><path fill="#01B9FC" d="m299 334 6 1 1 6 3 1 1 5h2v2l2 1q2 4 1 8h-6q-3-3-3-8l-3-1-1-7h-2l-2-7z"/><path fill="#2FE2FD" d="M262 30q5 10 3 22l-1 2v8l-2 10h-2l1-10-3 1c1-26 1-26 4-33"/><path fill="#18CBFE" d="M357 286h1l-1 8h5v2l-2 1-1 5 1 2v3l2 7 4 1 1 6-2 3-4-5-3-2q-4-10-3-22z"/><path fill="#7CFBFC" d="m197 108 1 2-2 4-6 10h-2v2q0 7-5 14l-4 6q-3 7-5 7v-3h-2l8-15 10-17 1-2 2-2 1-2z"/><path fill="#88FCFD" d="M275 119h2l3 7h-2l1 3 2 16v6l-1 1-1 5v4h-1c-6-33-6-33-3-42"/><path fill="#87F8FC" d="M408 446q6 2 8 9l2 4 2 3 6 12 2 2 1 2 1 2 3 5-1 3q-5-3-6-9l-5-8-9-13-2-2-1-2-1-2z"/><path fill="#149AE7" d="m374 444 19 13 2 2 6 5-1 2-6-1v-2c-4-2-4-2-9-2v-3l-3-2-2-2-2-1-3-2-5-3 4-2z"/><path fill="#229CD9" d="m400 465 8 4 3 2 2 2 5 4 3 1 5 4 2 1v2l4 2-4-9-2-3 1-3 3 6 2 1c3 6 3 6 3 10h3v2l-11-3v-3l-9-3v-3l-2-1h-2l-3-1-2-1-1-3-5-3-2-2-2-1z"/><path fill="#16ECFE" d="M249 218h4l3 4v4l2 1-1 6h-2v3h-3l-1 6h-2v-3h-2v-7h-2l1-4 6-3v-3l-3 1z"/><path fill="#41ECFD" d="M337 148h1l1 15 1 10 3 7 2 15-5-2-2-10-1-3-2-14h2l-1-2z"/><path fill="#4BDDF7" d="m427 254 3 1v3l-1 4v3h-2v5l3 1-3 7h3l-2 8 2 1v5l-3 1 2 5h-2l1 3q3 8 0 16l-1 4q-2-4-1-10v-2l-1-9v-3c-1-38-1-38 2-43m0 53 1 4z"/><path fill="#2AE1FE" d="m390 246 1 2h6l1 4c-6 6-6 6-10 6h-3l1-4-6 1 1-3h-2v-2l-3-1 5-2 2-1z"/><path fill="#12D9FE" d="m340 365 9 9-1 2-3-2 1 2 1 4h-2v-2l-3-1-2 4h-5l-3-6h2l1-5h2v-4z"/><path fill="#1CBCE9" d="m263 247 3 3 10 12 1 1 4 4-2 5v-2l-4-5-7-7-2-3-3-4-4 2-1 1-4 4-2 2-2 2-4 6-1 2-2 11q-2-4-2-10 3-9 11-15h2v-2h2l1-2q3-6 6-5"/><path fill="#5FFBFD" d="M247 125h1c-2 22-2 22-4 26v4q1 6-2 11l-1-8-1 5h-1q1-18 4-34l2 1z"/><path fill="#21B0DD" d="M198 102h5l-2 8-3-3-15 25-12 19-2 3-1 2-2 3-1 1h-2l7-13 4-6 1-2 9-15 2-2 2-3 1-2 1-5 5-5 2-3z"/><path fill="#88FDFD" d="M349 368q7 2 11 9l6 9 2 2 8 12-4-1-1-4-2-1q-4-2-7-6l-2-2-13-16z"/><path fill="#82FCFD" d="M423 342h1v56l-5-5 2-1v-44h1z"/><path fill="#158DCD" d="M276 344q5 2 7 6c3 5 3 5 7 8v2l4 5 2 3-1 3-16-21 2 18 1 15-4-14-1-3-2-21z"/><path fill="#28C8F5" d="m355 271 1 2-3 5q-5 10-7 22h3l-1-7h2v9h-2v3l-3-1-1-9-4 8-4-3 3-1 1-2-2-1 2-1q4-4 5-10h2l-1-5h2l1-3 3-1z"/><path fill="#65F5FC" d="M261 20h2q5 19 3 37h-1l-2-23q-6 12-6 27h-2l1-15v-3l2-10z"/><path fill="#1EC0E9" d="M238 153h1a287 287 0 0 1-7 51l-2 14v2l-1 6-3-8h2v-2q-1-9 2-16v-11l2-4 1-6 1-4 2-12v-4z"/><path fill="#2AAFD7" d="M323 102h3l3 4 1 2 1 4 3 1 1 4 3 2v1l2 1-1 2 2 3 2 5q-4-1-6-6l-2-3-2-4-7-11 2 16v2l1 9-2 2v-4l-2-1 1-7-2-1-1-5v-3l1-6h-3z"/><path fill="#11D9FE" d="M388 239h2v2l5 1 1 4 3-3 4 2 1 5-4 1v2h-2l-1-4h-8l1-3-8 2-6 1 1-5h7l3-3z"/><path fill="#0FBFFD" d="M403 444q9 7 11 20v2l2 4-8-4-2-1-2-2v-3h2l-1-3-1-3-1-3z"/><path fill="#15E5FE" d="M275 148q4 4 3 8l1 4v2l1 6 2 16h-4l-1-7v-3l-2-14h-3l1-3 1-4z"/><path fill="#BAFBFC" d="M162 433q-1 5-6 7l-12 9-3 2-5 4-3 2-2 2-5 1v-3l3-3 3-1 2-2 5-4 3-1 13-10q2-3 7-3"/><path fill="#64FBFE" d="M224 377h2v9l-2-2-3 8-4-1v2q-2 4-6 5l-2 2-2 1-1-3h3v-2h3v-4l-2-1 11-10z"/><path fill="#199ADD" d="m286 323 7 2 1 2h-4l1 2 34 59-1 2-7-11-6-11-2-2-8-15-2-3-1-3-2-3-1-4h-2v-2l-1-2-2-1-2-5-1-3z"/><path fill="#27BEE7" d="m135 198 2 1q1 6-4 11l-1 2-2 2-14 19-1 2-2 2-2 4h-2l-1 2-4 6-2 2-1 2-2-2 2-2 11-16 3-3 4-7 1-2h2l2-3 1-2 1-4 4-2v-2h2z"/><path fill="#1BB8E9" d="M336 177q4 5 4 9l1 7 4 14v3l4 15h-6l1-3h2l-2-3q-4-9-3-18h-3l2-3h-3v-7l-2-1zm0 9 1 3z"/><path fill="#1DD6FE" d="M338 136q6 6 8 13l1 2 3 6h-3v2h-2l-1-3-1-3-4-1-1 3-3-18 3 3v2h2z"/><path fill="#82FBFD" d="M147 402q0 9-7 14l-1 2-3 4-4-1-1 2-8 12-2 2-1-2 2-3 5-7c8-14 8-14 14-17l4-5z"/><path fill="#65FBFD" d="M259 230h2c2 16 2 16-2 21l-3 3h-2v2l-3 3q-5 4-8 9v-5q2-5 6-9l2-3 3-1 3-6h2z"/><path fill="#21A9DD" d="m294 327 21 9c9 4 9 4 19 6l1 2q2 5 6 7l7 9-5-1-1-2-2-2-4-5-9-6-2-1-22-10-3-1-2-1z"/><path fill="#20BBE8" d="M227 223h1l-3 25c-2 11-2 11 0 22l5 6 3 5h-3l-3-4-3-4h-2l-3-9 1-2v-2l1-5 2-8 1-4 2-15z"/><path fill="#30EFFE" d="M260 174h1v56h-2c-2-40-2-40 0-55z"/><path fill="#53F0FC" d="m341 192 1 2h2l1 3v5l1 2 1 6v2l1 2 3 1 3 6 1 4 1 6-6-4-1 3-2-4 1-3-2-8c-5-15-5-15-5-23"/><path fill="#37E8FE" d="m415 366 6 3v23q-5-1-6-6z"/><path fill="#A0FDFE" d="M294 222q3 6 3 11v2l3 33h-1v-2l-1-7-1-3v-2l-1-3-1-6-2 3q-3-9-3-19l2 1v8h3v-2z"/><path fill="#1BB6F1" d="M350 227q6 3 8 9l4 5q5 8 3 17h-2l-1 2q-1 7-6 11 0-6 3-10 2-5 2-12l-2 1v-7l-2-1-2-5-5-7z"/><path fill="#92F6FB" d="m125 458 1 2 2 1-2 1-26 21-2 1c-5 3-5 3-8 3l5-9 1 3 7-5 11-10 2-1z"/><path fill="#1DB8E1" d="M251 66q3 4 1 10v3l-1 4-3 23-2 10v4l-1 3v4l-3 4-1-9h2v-2l2-17 1-14h1z"/><path fill="#85F8FD" d="m171 280 6 9 1 3 1 3 1 3v8l-5 6-1 2q-2 3-6 5h-5l5-5 1-2 6-5 1-12-3-5z"/><path fill="#1689D0" d="m130 461 2 1-10 7-12 8-2 2-5 4-3 1-2 2-7 3 11-10 2-1 15-12c6-5 6-5 11-5"/><path fill="#22B4E4" d="m347 360 11 10 2 2 3 4 8 10 2 4 3 1 3 5h2v2l4 6 1 2 1 1-2 2-2-3-26-33-4-4-1-3h-2q-4-3-3-6"/><path fill="#5CF2FE" d="M101 333h1q1 30-3 60h-1v-41l2-2z"/><path fill="#19CEFB" d="m160 268 2 2 2-2 3 5 3 7q3 4 3 9h-1l-1 7-9-20-2-3z"/><path fill="#23C0EB" d="M374 182h3l3 6q2 6 6 10l3-1 1 4q2 8 8 15l3 5 2 2 3 7h-2l-3-4-1-2-2-3-3-4-17-26-2-3z"/><path fill="#21AEE4" d="m200 342-3 2-3 2-5 2-1 3h-2l-1 2-7 9-21 23-2-1 10-12 7-8 2-2c9-8 9-8 16-18 6-3 6-3 10-2"/><path fill="#18ABE5" d="m180 298 4 1q1 6-4 11l-5 5-17 20h-2l-1 2-1 3-4 1 1-2 2-2 2-2 2-4h2l1-2 5-6 11-13 1-1q4-5 3-11"/><path fill="#24BFE4" d="m282 130 3 1-1 6 1 5 2 12 2 15 1 17q-3-3-3-8l-2-15v-3l-3-16z"/><path fill="#40ECFD" d="M259 39h1l-1 23h2v31h-1v-7l-1-3q2-3-1-6v-7h-2l-1 6h-1V59l1 2h2v-2z"/><path fill="#8FFBFE" d="M224 382h1v8h3q5 0 6 2l1 1 1-3h2v6l-2-1h-2l-3-1-7-1-9 7c-4 3-4 3-8 3l-2-1 8-6q4-2 4-5h4z"/><path fill="#61F7FD" d="M196 118h1l-2 18-3 16v3l-1 4q0 6-4 9l4-34h2v-3l1-4v-4z"/><path fill="#23BEED" d="m388 405 2 5 4 7 2 1 3 7 2 1 2 1 1 5 3-1v2l2 1v5l3 1v4l-4-1-7-10-8-13-2-2-2-3-3-5zm17 28 1 2z"/><path fill="#1696DC" d="M242 366c4 6 1 15-1 22l-2 12h-2q-6 2-11 6l-3-1 1-4h-2v-3h5v3h5v-3h3l1-3 2 1v-2z"/><path fill="#29CEF0" d="m406 229 3 1v4h2q4 3 5 8l4 2 2 2-1 3 8 1v3h-4l1 1v24h-1v-12c-1-11-6-16-12-24l-4-5-2-2-2-5z"/><path fill="#3CE2F8" d="m428 364 1 10v11l1 3-1 4h-2l1 2 2 7h-3l3 3-1 2-5-1 1-3v-24l2-6v-7zm-1 25 1 2z"/><path fill="#93FCFE" d="m146 262 5 1 5 6h2l3 3 2 3 1 2 1 3 2 4c4 12 4 12 4 18h-2v-2q-5-22-22-36l-1-1z"/><path fill="#11D0FE" d="m123 253 7 2v2h3q4 1 6 4l-5-1-1 4-1-1 1 4 4-1v9l-5-5-1-2q-4-4-6-9l-2-2z"/><path fill="#77FBFD" d="m374 186 11 14 3 7 3 5 2 3 6 8-1 2-3 1-4-7-2-2-5-11-7-13z"/><path fill="#A0FAFC" d="M98 262h1v68l-1 12h-1z"/><path fill="#72FDFE" d="M154 247h2l2 10v6l1 3-1 4q-6-2-8-7l-2-1v-3h3v3h2l-1-2q-1-6 2-13"/><path fill="#82FBFD" d="M169 371q0 4-3 7l-3 3 1 2-4 2 3 1-6 9h-2l-5 6-3-1 1-2 2-2 2-2 1-4 5-7 3-2 2-3z"/><path fill="#19CCFD" d="M366 324h5l4 6 3 1 2 2h3l-1 2v2l2 2 2 2q0 4-3 6l-1-2-14-18z"/><path fill="#16D1F9" d="m212 362 1 2-3 5-4 9-7 13-3 5h-4l3 2h-5l3-9 5-1v-3q0-4 4-7l3-7 4-5z"/><path fill="#1491D1" d="M246 345h2q0 12-4 24h-1l2-19-1 1-5 7-2 2-1 3-2 2-1 1h-2l-1 2q-2 4-6 7 1-6 5-10l9-10 1-1 6-7z"/><path fill="#1EB7EA" d="m296 369 8 10 3 4 2-1 1 2q1 3 5 4l2 1 2 1 2 1 3 1 1 2 2-3 3 7q-6 0-11-5l-10-5q-5-3-8-8l-3-5q-2-1-2-6"/><path fill="#5EFBFD" d="m192 346 2 1-2 2 4 2-5 6-2 2q-3 6-10 7 0-6 6-11l4-4v-3z"/><path fill="#1EDDFE" d="M404 249q0 4-3 7l-2 2-7 7v-3l-6 2v-2l-6 1 6-4q5-1 8-5l2-2 4 1v-2z"/><path fill="#51FDFE" d="M230 214h1v8h3q1 10-2 19l-2 1v-4h-2l-1 2q-1-13 3-26"/><path fill="#2196D1" d="m114 446 1 2-3 5-2 3-2 3-15 30-3-1-1-4 2-1v2h2v-2q3-10 10-21l5-8q2-5 6-8"/><path fill="#1FD6FE" d="M413 366h1v5l-1 1h3v8l-1 4q-5-1-7-7l-2-3-2-6 3-1v4l4-1v-2h2z"/><path fill="#45F0FE" d="m311 338 15 7v2l3 1q5 1 6 6v5l-14-11-7-5v-2l-3-1z"/><path fill="#1DB0DE" d="m299 249 3 1c2 17 2 17 0 22l-6 5-4 5-3 4h-2l-1 2q-1 3-5 5l-2 2-1 1 7-10 9-8q6-6 6-16z"/><path fill="#88FCFD" d="M266 43q3 4 3 9l1 4v4l1 7 1 4 1 6v11l-3-10-3-8z"/><path fill="#21B0DD" d="m163 160-2 7-2 3-15 24-2 2-2 3-3 3q1-7 6-13 7-6 7-15h2q4-2 6-8v-2z"/><path fill="#A0FBFC" d="m141 197 2 1-4 5-2 4-8 11-4 8-3 3-8 11-4 3 7-13 4-4 1-3 8-11z"/><path fill="#1DB6ED" d="m223 373 2 3-7 9-3 2-3 2-3 2q-7 8-18 6l2-2h3l2-2 2-1q9-3 14-10h3l1-2 3-5h2z"/><path fill="#A2FBFC" d="m273 89 3 10 1 3v3l1 4 1 15-2-1v-4h-2l-1 4-1-23z"/><path fill="#6FFBFD" d="m268 71 2 1 1 5c0 5 0 5 2 8l1 12v28h-1v-3z"/><path fill="#A0FAFC" d="M97 342h2l-1 56h2v-2q2-4 5-6l2 2-4 4-2 3-3 4-2-1z"/><path fill="#19CEFB" d="m161 241 1 4 1 2v10l1 5 1 3v2l-3-4-2 1v-2h-2q-3-8-1-16z"/><path fill="#1BAEE1" d="m328 134 3 8 1 3v3l1 5 1 3 1 4 1 6 1 3 1 10h-3l-6-33-2 1v-3h2l-1-2z"/><path fill="#08ABFA" d="m121 441 2 3q-2 7-7 13l6-1-2 3h-7l-2 6-2-4 3-6 2-3 2-3 3-5z"/><path fill="#C4FEFD" d="m388 222 4 1 3 5 13 23q-5-1-7-7l-2-3-4-7z"/><path fill="#189BD5" d="M194 144h1l-3 18v2l-3 18-1 2c-1 6-1 6-3 8l1-14 1-4 6-27z"/><path fill="#1592D5" d="M238 323q-1 6-5 10l-2-1 3-4-29 12-2 1-4 1v-2l2-1h2l3-1 3-3 4-2 3-1 3-1 6-3 3-1 6-3z"/><path fill="#83FAFD" d="M109 241v5l-7 8q-4 7-3 16v2l-1 24h-1v-3l-3-7v-3h2v-2c-1-25-1-25 9-35l2-2z"/><path fill="#28EEFE" d="M287 217h1l1 4v3l-1 6-1 2v2h-2l-2 11-2-10-2-10v-6l1 3h2l2 6h2l-1-2z"/><path fill="#52F9FE" d="m258 77 2 1 1 11v25l-1 1-1 4v4h-1z"/><path fill="#21AEE4" d="M155 385q0 5-5 9l-12 16-2 2-3 5-3-1 2-3q3-3 2-7h2q4-2 6-5v-3l2-2 4-4 2-4 3-1z"/><path fill="#2AE1FE" d="M416 354h3v4h2v11l-5-2-1 5-3 1-1-2h3l-1-9h2v-3z"/><path fill="#0CBEFC" d="M354 278h2l-1 3v7l-1 4-1 2-3 3v-4h-2l1 7h-3q0-11 7-21z"/><path fill="#2BCBEF" d="M404 377q6 4 9 10l12 15-1 2-2-2q-2-4-4-3l-2-1-1-3-1-3-2-1q-3 0-5-4l-1-4-2-2-3 1-1-2zm4 8 1 2z"/><path fill="#47F5FE" d="m324 397 2 1v2l-18-6-2-4q11-2 18 7"/><path fill="#2ADBFD" d="m413 460 8 9 1 3 6 8-1 2-5-4-3-2q-5-4-6-12z"/><path fill="#1FBEF0" d="M164 277h2l1 3 4 5h2l1 9h2v-2l3 1v5l-2 1 1 4h2l-1 3-7-11-6-12zm11 18 1 2z"/><path fill="#1EECFE" d="M257 202q3 6 2 13v29h-2v-2h-2l1-5h2v-10l-3-1v-3l2-13z"/><path fill="#48F0FC" d="m235 328-7 4-15 7-14 6-4 3 1 2h-5q1-4 5-7l3-1 2-1 26-12 3-1z"/><path fill="#3DECFE" d="M375 250h4v2h2v2h5v3h4v2l-6 3-3 1-3 1-2-1 2-2v-6l-5-1z"/><path fill="#0493EE" d="M113 459h3l1 6-5 4-2 2-8 4 6-12 3 1z"/><path fill="#15DCFD" d="m294 331 8 2-3 2 1 7h2l1 3 1 4 2 1 2 4 1 2v5l-16-28z"/><path fill="#1DB0DE" d="M293 206q3 2 3 6l1 3-1 5 2 1 1 6v6l1 10v6l-2-1-1-7-1-2-2-17v-2z"/><path fill="#52F3FD" d="M198 106h1v6l-1 4v3l-2 1-1 6-1 3v3h-1v-6h-3l-2 7v-9l3-3 2-4 1-2 3-7z"/><path fill="#5DFBFE" d="M293 251h2l1 9v15l-5 4 2-8-5 2 2-7 4-1z"/><path fill="#0D91E6" d="m189 417-1 3h-3l-1 3h-2v2l-3 2h2l2-1 3-1h5q-4 4-9 5l-3 2h-4l1-4h-2q1-5 7-7l3-2z"/><path fill="#05E6FE" d="M257 231h1v6l-2 1-1 4h2l-1 4h-2l-1 4h-4l3-14h3v-3h2z"/><path fill="#1FABD6" d="M270 55h1l1 6 1 4v9l3 1h-2l1 4 1 4v3l1 16-4-12v-2l-3-18z"/><path fill="#21AEE4" d="M131 417q0 5-4 8l-10 16-7 9 2-7 2-2 1-3 8-13q2-4 6-6z"/><path fill="#18ABE5" d="M127 368q0 5-5 9l-17 20-2 3h-2l-2 4-2-1c20-25 20-25 30-35"/><path fill="#0ACFFE" d="m115 249 11 13-2 4-3-1v-2h-3v-6l-3-1-1 4v-3l-3-1 2-1 1-5z"/><path fill="#1DDDFE" d="m232 368 1 2 8-1 1 5-2 3h-2l-1 9h-2q-1-7 1-12l-3 1-2-1z"/><path fill="#83FDFD" d="m294 244 2 1 2 10 2 15-6 2 1-3v-18h-2z"/><path fill="#6EF6FD" d="m353 228 4 3v2l3 1 4 4 1 2q4 6 3 14l-1 2v5h-1v-2q-1-15-11-26z"/><path fill="#50FAFE" d="m373 183 3 5 3 7 7 14 3 6-2 1-10-18-1-2-5-12z"/><path fill="#BAFDFD" d="M288 188q3 3 3 7l1 3v4l1 3 1 17-3-2-3 1v-7l3 1-1-7-1-4-1-8z"/><path fill="#0BB5FC" d="M148 435v2h2q0 4-3 6l-3 2-2 2-2 1-1-2h-2l1-6 5-1v-3z"/><path fill="#9AFBFD" d="m153 390-2 7-2 2-1 1 9-7q-1 6-6 10l-5 5 1-5-2 2-7 6q3-7 8-12l1-2z"/><path fill="#79FAFE" d="m356 286 1 7-2 13-1-4h-2l1 7-4-1-1-6h2v-2q2-8 6-14"/><path fill="#35CCEA" d="M342 131h3l1 4 3-1 1 7 2 2 1 2 3 1 2 7-1 2q-7-6-11-15l-1-1c-3-5-3-5-3-8"/><path fill="#0981DA" d="M147 448v2h-2l-1 3h-2l-2 1-1 2q-1 5-6 6h-5q3-7 9-9l2-2c5-3 5-3 8-3"/><path fill="#20AAE1" d="m409 444 4 1 1 3 2 2 3 8 3 1 2 6 5 4-1 3-3 1zm17 25 1 2z"/><path fill="#1592D5" d="m231 333 1 2-8 13-17 28-1-2 3-5 2-3 2-4 3-6 2-3 8-14z"/><path fill="#3AEAFA" d="m239 275 5 2v2l1 15-8-10c0-7 0-7 2-9"/><path fill="#7EFAFE" d="m407 248 4 2v4l-5-2v2l-4 5-11 10-2 2-4 4-2-1 2-2 14-15 7-7z"/><path fill="#1FE0FE" d="M198 398h3v2l4-1v3l-3 2-3 2-2 1-2 2-9 4q1-6 3-7l3-1 3-1 1-3 3-1z"/><path fill="#3DEEFD" d="m209 390 2 1 1 5h-3v2h-3l-1 3-4-1v-2l-7 1q3-4 8-5z"/><path fill="#50FAFE" d="M399 225q3 2 5 6l2 4 2 3 1 2v5l-13-17z"/><path fill="#1BB3E4" d="M353 150c9 9 9 9 10 15h2v2l2 1 3 5 2 3 2 7-9-12-2-2c-10-16-10-16-10-19"/><path fill="#0986E5" d="M358 434q6 2 11 6l3 2 2 2v2l-6 1-3-6-6-1z"/><path fill="#20A2E3" d="M280 379q4 2 4 5v7l1 5 3 1v1h2v2l6 1v2h2v2h-2l-5-1v-3l-3-1-6-3-1-5-2-8z"/><path fill="#19CFFE" d="M167 293h1c1 19 1 19-2 25l-6 6-2 2 1-8 4-1v-2h3v-5l-2-1z"/><path fill="#11D3FE" d="m356 386 5 1 4 6-6-2-4 6 3-1-1 4-5 1-1-7 4-1-1-2z"/><path fill="#25EFFE" d="M268 250h7l4 4h2v-2h2v10q-4 0-7-3l-1-4-2-1q-3 0-5-4"/><path fill="#90FEFE" d="m291 216 4 14v8h-3l-1-8-2 1-1-10 3-1z"/><path fill="#18ABE5" d="M150 341q0 5-4 8l-17 19-2-1z"/><path fill="#2BE8FE" d="m257 123 3 1v2l2 1-1 3-1 12v2l-1 22h-1z"/><path fill="#78FAFE" d="m394 430 5 1 5 8 2-1 4 8-4 2z"/><path fill="#24DCFE" d="m329 405 5 1v3l2-1h2l4 4 2 1v3l-4 1-6-4-3-2-4-4h2z"/><path fill="#2FEAFE" d="m314 396 12 4-1-3 5 1v5h-4v3q-7-2-12-8z"/><path fill="#BBFDFD" d="M375 198q6 4 9 11l7 12-4 1-6-11-2-3-1-3-2-3z"/><path fill="#39E3FC" d="M107 461h2l-6 13 3-1q-2 6-7 8h-3v-6l2 1 2-3 2-4 1-2z"/><path fill="#4BEFFD" d="m322 389 9 2 1 4h2v3h3v4l-7 2v-2l-1-3v-3l-2-4-2 3v-4l-3-1z"/><path fill="#CAFCFC" d="m369 333 7 6 2 1 6 7 3 3q3 3 3 8l-14-15-2-2-2-3-2-1z"/><path fill="#14C7FD" d="m107 268 3 2v2h3l2 5-5 5-4-5v-5z"/><path fill="#85FAFE" d="M304 395q6-1 11 3l4 3-1 3h2l-1 3-7-4-2-2q-6-3-6-6"/><path fill="#13C8FD" d="M365 249h1c1 15 1 15-4 22l-3 1-1 2q0-9 5-16h2z"/><path fill="#15ACEA" d="m176 221 2 3-1 2q-5 6-8 13h-2v2h-2l-1 4-4 1q3-7 8-13z"/><path fill="#15A2DF" d="m184 191 2 1 1 7-2 2-1 6-1 3v3h-2v3l-4 7 4-18z"/><path fill="#A7FDFE" d="m361 174 4 1 3 8 3 5v2h3l3 5 1 3 1 2-1 2q-7-8-12-17l-1-2-2-3-1-2z"/><path fill="#29CFEE" d="m241 129 2 2v6l-1 3v4l-1 4-1 9-3-1v-3l1-16q-1-5 3-8m-2 4v5h1v-5z"/><path fill="#B4FAFC" d="M389 354h2l3 3q5 9 12 16l-4 1-5-6-2-2-1-2-2-1q-3-4-3-9"/><path fill="#26E3FB" d="M245 349v10l-1 3-1 3-1 7h-1l1-14-7 8h-2l7-11 2-2z"/><path fill="#0FC5FC" d="M171 288c6 6 6 6 6 9v7h-4q-2-7-2-16"/><path fill="#6DFBFD" d="m102 253 1 2 2 1-1 3-2 13-3 5v-18q0-4 3-6"/><path fill="#41ECFD" d="m344 195 4 3 2 6 2 10-1 3q-7-8-7-20z"/><path fill="#27E0FE" d="M339 160h2l1 14h2l3 22-2-1-1-4v-2l-1-3-1-5v-2l-3-5v-6l-1-3z"/><path fill="#20A0DB" d="M232 281q5 1 8 7l2 3 2 2-1-11 3 4 1 3 1 3-1 8-5-5-5-6-2-2-2-2z"/><path fill="#2BB2E0" d="m280 268 2 1q1 11-2 21l-2 9-4-1 4-13 1-9z"/><path fill="#31CBEF" d="M96 252h4l-1 2-1 10-1 4v18q-3-5-3-11h2v-3l-1-2v-4q-2-7 1-14"/><path fill="#24B2DC" d="M277 98h1v3l1 3v3l3 5-2 6 2 1v15q-3-4-3-9l-1-4-1-12-1-4z"/><path fill="#89FCFD" d="m388 417 8 7 2 1 3 4 4 8-1 3-1-2-2-2-1-3-5-3-3-3-1-2-1-3z"/><path fill="#26D5FD" d="m357 270 4 2q1 5-2 10l-2 2-1 2h-3l3-8-5 4q2-7 6-12"/><path fill="#2CE9FE" d="M256 70h2v53h-1l-1-45-2 1z"/><path fill="#0ED3FD" d="M240 358h2l-1 11-8 1v-3l-2-1h2q3-1 5-5z"/><path fill="#1DCCF0" d="M426 346h1v17l2 1h-2v17h-1l-1-12v-18z"/><path fill="#56F0FE" d="M168 297h1v5h2l1-4 1 3 3 4q-2 6-8 9z"/><path fill="#62FBFE" d="m372 254 6 1 1 6-6 5q-3-5-1-12"/><path fill="#39F8FE" d="m388 215 6 7 2 3h3l-1 2q0 4 2 7l2 2 1 2 1 2 4 5-1 2-12-17-1-2c-6-10-6-10-6-13"/><path fill="#5BFCFE" d="m150 189 1 4-3 4-1 2q-4 5-10 8l4-7 1-5h4v-2z"/><path fill="#189BD5" d="M199 107h1l-2 24-1 4-1 9h-2l1-16z"/><path fill="#A6FAFA" d="m325 105 8 12-1 2-2-4h-2v2q3 7 2 16l-3-7v-2l-1-3v-2z"/><path fill="#4EFFFF" d="M238 126h3l-1 4h-2z"/><path fill="#5AFFFF" d="m299 229 2 3-1 3-1-4z"/><path fill="#3AFFFF" d="m242 106 2 1-1 6h-1z"/><path fill="#43F4FF" d="m343 309 2 3-2 1-1-3z"/><path fill="#4DFFFF" d="M418 240h3l-1 3-2-1z"/><path fill="#78FFFF" d="M276 81h1v6h-1z"/><path fill="#48FFFF" d="m276 267 2 2h-3z"/><path fill="#65F2FF" d="m330 108 3 1-1 2z"/><path fill="#37E7FF" d="M421 403h2l-1 3z"/><path fill="#44EFFF" d="m93 362 1 4z"/><path fill="#15E9FF" d="m276 300 2 1h-3z"/><path fill="#35FFFF" d="M100 246v3z"/><path fill="#5FFFFF" d="m415 239 2 1-1 2z"/><path fill="#3FFFFF" d="M298 221h2v2h-2z"/><path fill="#1FFFFF" d="m343 218 1 3-2-1z"/><path fill="#4FE1EA" d="m397 161 1 4z"/><path fill="#3FFFFF" d="m330 159 1 4z"/><path fill="#70EBFE" d="m283 125 1 4z"/><path fill="#52E5FF" d="m275 76 2 3h-2z"/><path fill="#4AFFFF" d="m248 73 1 4z"/><path fill="#54EFFF" d="m274 70 2 2-2 1z"/><path fill="#00FFFF" d="M414 479h2l-1 2z"/><path fill="#54FFFF" d="m429 275 1 2-2-1z"/><path fill="#2AFFFF" d="m270 262 2 1-2 1z"/><path fill="#3FE9FF" d="m360 255 1 2-2-1z"/><path fill="#63FFFF" d="m264 254 2 2h-2z"/><path fill="#2AE9FF" d="m427 247 3 1z"/><path fill="#5EF4FF" d="M404 224h2l-1 2z"/><path fill="#7FFFFF" d="m294 198 2 1-2 1z"/><path fill="#2AFFFF" d="m159 160 1 2-2-1z"/><path fill="#38FFFF" d="m239 118 3 1z"/><path fill="#00FFFF" d="m91 492 2 1z"/><path fill="#00FFFF" d="m428 462 2 1z"/><path fill="#3FBFFF" d="m442 459 2 1z"/><path fill="#3FBFFF" d="m382 459 2 1z"/><path fill="#44BBFF" d="m382 457 2 1z"/><path fill="#00BFFF" d="m359 442 2 1z"/><path fill="#7FFFFF" d="m332 425 2 1z"/><path fill="#00BFFF" d="m287 401 2 1z"/><path fill="#3FFFFF" d="m418 400 2 1z"/><path fill="#00FFFF" d="m133 399 2 1z"/><path fill="#2AFFFF" d="m321 391 2 1z"/><path fill="#6AD4FF" d="m278 390 2 1z"/><path fill="#3FFFFF" d="m398 375 2 1z"/><path fill="#1FDFFF" d="m275 342 2 1z"/><path fill="#2AD4FF" d="m191 342 2 1z"/><path fill="#2AFFFF" d="m323 338 2 1z"/><path fill="#3FFFFF" d="m342 315 2 1z"/><path fill="#00FFFF" d="m342 286 2 1z"/><path fill="#00FFFF" d="m163 258 2 1z"/><path fill="#00FFFF" d="m283 117 2 1z"/></svg>